<svg width="28" height="28" viewBox="0 0 28 28" fill="none" xmlns="http://www.w3.org/2000/svg">
<path d="M23.975 4.28751C23.975 4.02501 23.8875 3.85001 23.7125 3.67501C23.5375 3.50001 23.3625 3.41251 23.1 3.41251C22.8375 3.41251 22.6625 3.50001 22.4875 3.67501L20.125 6.03751C18.375 5.16251 16.3625 4.63751 14 4.37501C9.625 4.81251 6.125 6.38751 3.675 9.18751C1.225 11.9875 0 13.5625 0 14C0 14.4375 1.3125 16.0125 3.675 18.8125C4.2875 19.5125 4.9 20.125 5.6875 20.65L3.325 23.1C3.15 23.275 3.0625 23.45 3.0625 23.7125C3.0625 23.975 3.15 24.15 3.325 24.325C3.5 24.5 3.675 24.5875 3.9375 24.5875C4.2 24.5875 4.375 24.5 4.55 24.325L23.8 4.90001C23.8875 4.72501 23.975 4.55001 23.975 4.28751V4.28751ZM6.3 18.725C4.2 16.8 2.8 15.225 2.1 14C2.8875 12.6875 4.2875 11.1125 6.3 9.27501C8.3125 7.43751 10.9375 6.30001 14 6.12501C15.75 6.21251 17.4125 6.65001 18.8125 7.35001L17.325 8.83751C16.3625 8.22501 15.3125 7.87501 14 7.87501C12.25 7.87501 10.85 8.48751 9.625 9.62501C8.4 10.7625 7.875 12.25 7.875 14C7.875 15.3125 8.225 16.45 8.8375 17.4125L7 19.3375C6.7375 19.1625 6.475 18.9 6.3 18.725V18.725ZM10.15 16.1C9.8 15.4875 9.625 14.7875 9.625 14C9.625 12.775 10.0625 11.725 10.9375 10.9375C11.8125 10.15 12.775 9.62501 14 9.62501C14.7875 9.62501 15.4875 9.80001 16.0125 10.15L10.15 16.1ZM24.325 9.18751C23.975 8.75001 23.5375 8.40001 23.1875 8.05001L21.875 9.36251C23.8875 11.2 25.2875 12.775 25.9875 14C25.2 15.3125 23.8 16.8875 21.7875 18.725C19.775 20.5625 17.0625 21.7 14 21.875C12.6 21.7875 11.2875 21.525 10.15 21.0875L8.83747 22.4C10.4125 23.0125 12.075 23.45 14 23.625C18.375 23.1875 21.875 21.6125 24.325 18.8125C26.775 16.0125 28 14.4375 28 14C28 13.5625 26.6875 11.9875 24.325 9.18751V9.18751Z" fill="#797979"/>
</svg>
