<svg width="24" height="24" viewBox="0 0 24 24" fill="none" xmlns="http://www.w3.org/2000/svg">
<path d="M6 14.8H15.1201V17.3H6V14.8ZM6 10H18.1201V12.5H6V10Z" fill="white"/>
<path d="M19.4246 1.70396e-05H15.8891H12.6447H9.17153H5.90635L0 0V2.0764H0.956595V4.62595V12.2595V24L5.90635 22.4733L9.17153 23.5267L12.6447 22.4733L15.8891 23.5267L19.4246 22.4733L24 24V1.70396e-05H19.4246ZM21.3795 21.1145L19.4662 20.4886L15.9514 21.542L12.6863 20.4428L9.19232 21.4962L5.96874 20.4428L3.57705 21.1603V2.07635H5.90635H9.19232H12.6863H15.9514H19.4246H21.3795V21.1145Z" fill="white"/>
</svg>
