<svg width="24" height="24" viewBox="0 0 24 24" fill="none" xmlns="http://www.w3.org/2000/svg">
<g clip-path="url(#clip0_9_77)">
<mask id="path-1-inside-1_9_77" fill="white">
<path d="M5.28302 18.36C5.74614 18.3612 6.2049 18.2706 6.6328 18.0935C7.06071 17.9164 7.44926 17.6562 7.77602 17.328L11.376 13.728C11.5033 13.6061 11.6728 13.5381 11.849 13.5381C12.0253 13.5381 12.1947 13.6061 12.322 13.728L15.935 17.341C16.2617 17.6692 16.6503 17.9294 17.0782 18.1066C17.5061 18.2837 17.9649 18.3743 18.428 18.373H19.138L14.578 22.933C13.8941 23.6164 12.9669 24.0004 12 24.0004C11.0332 24.0004 10.1059 23.6164 9.42202 22.933L4.85002 18.36H5.28302ZM18.428 5.62699C17.9649 5.62578 17.5061 5.71636 17.0782 5.89349C16.6503 6.07062 16.2618 6.3308 15.935 6.65899L12.322 10.273C12.1964 10.3982 12.0263 10.4685 11.849 10.4685C11.6717 10.4685 11.5016 10.3982 11.376 10.273L7.77602 6.67299C7.44935 6.34462 7.06083 6.08426 6.63292 5.90695C6.20501 5.72964 5.74621 5.63891 5.28302 5.63999H4.84902L9.42202 1.06799C10.1058 0.384301 11.0331 0.000213623 12 0.000213623C12.9669 0.000213623 13.8943 0.384301 14.578 1.06799L19.137 5.62699H18.428ZM1.06802 9.42199L3.79002 6.69899H5.28202C5.93573 6.7007 6.5624 6.96013 7.02602 7.42099L10.626 11.021C10.9503 11.3443 11.3896 11.5259 11.8475 11.5259C12.3055 11.5259 12.7447 11.3443 13.069 11.021L16.683 7.40799C17.1464 6.94667 17.7731 6.68686 18.427 6.68499H20.194L22.931 9.42199C23.6147 10.1057 23.9988 11.0331 23.9988 12C23.9988 12.9669 23.6147 13.8942 22.931 14.578L20.195 17.314H18.427C17.7733 17.3124 17.1466 17.0529 16.683 16.592L13.07 12.979C12.7408 12.6648 12.3031 12.4895 11.848 12.4895C11.3929 12.4895 10.9553 12.6648 10.626 12.979L7.02602 16.579C6.5624 17.0399 5.93573 17.2993 5.28202 17.301H3.79102L1.06802 14.578C0.384332 13.8942 0.000244141 12.9669 0.000244141 12C0.000244141 11.0331 0.384332 10.1057 1.06802 9.42199"/>
</mask>
<path d="M5.28302 18.36L5.28564 17.36H5.28302V18.36ZM7.77602 17.328L7.06891 16.6209L7.06737 16.6224L7.77602 17.328ZM11.376 13.728L10.6845 13.0056L10.6766 13.0132L10.6689 13.0209L11.376 13.728ZM11.849 13.5381L11.849 12.5381L11.849 13.5381ZM12.322 13.728L13.0291 13.0209L13.0214 13.0132L13.0135 13.0056L12.322 13.728ZM15.935 17.341L16.6438 16.6355L16.6421 16.6339L15.935 17.341ZM18.428 18.373L18.428 17.373L18.4253 17.373L18.428 18.373ZM19.138 18.373L19.8451 19.0801L21.5522 17.373H19.138V18.373ZM14.578 22.933L15.2849 23.6403L15.2851 23.6401L14.578 22.933ZM12 24.0004L12 23.0004L12 24.0004ZM9.42202 22.933L8.71484 23.64L8.71514 23.6403L9.42202 22.933ZM4.85002 18.36V17.36H2.43618L4.14284 19.067L4.85002 18.36ZM18.428 5.62699L18.4254 6.62699H18.428V5.62699ZM15.935 6.65899L16.6422 7.366L16.6437 7.36455L15.935 6.65899ZM12.322 10.273L13.028 10.9812L13.0292 10.98L12.322 10.273ZM11.376 10.273L10.6689 10.9801L10.6701 10.9812L11.376 10.273ZM7.77602 6.67299L7.06709 7.37827L7.06891 7.3801L7.77602 6.67299ZM5.28302 5.63999L5.28302 6.63999L5.28536 6.63999L5.28302 5.63999ZM4.84902 5.63999L4.14199 4.93281L2.43443 6.63999H4.84902V5.63999ZM9.42202 1.06799L10.1291 1.77518L10.1291 1.77513L9.42202 1.06799ZM14.578 1.06799L15.2851 0.360884L15.2851 0.360854L14.578 1.06799ZM19.137 5.62699V6.62699H21.5512L19.8441 4.91988L19.137 5.62699ZM3.79002 6.69899V5.69899H3.3757L3.08278 5.99201L3.79002 6.69899ZM5.28202 6.69899L5.28463 5.69899H5.28202V6.69899ZM7.02602 7.42099L7.73313 6.71388L7.73101 6.71177L7.02602 7.42099ZM10.626 11.021L9.91891 11.7281L9.91995 11.7291L10.626 11.021ZM11.8475 11.5259L11.8475 10.5259L11.8475 11.5259ZM13.069 11.021L13.7751 11.7291L13.776 11.7282L13.069 11.021ZM16.683 7.40799L15.9775 6.69929L15.976 6.70079L16.683 7.40799ZM18.427 6.68499L18.427 5.68499L18.4242 5.68499L18.427 6.68499ZM20.194 6.68499L20.9011 5.97788L20.6082 5.68499H20.194V6.68499ZM22.931 9.42199L23.6382 8.71492L23.6381 8.71488L22.931 9.42199ZM22.931 14.578L23.6381 15.2851L23.6382 15.2851L22.931 14.578ZM20.195 17.314V18.314H20.6092L20.9021 18.0211L20.195 17.314ZM18.427 17.314L18.4246 18.314H18.427V17.314ZM16.683 16.592L15.9759 17.2991L15.9779 17.3011L16.683 16.592ZM13.07 12.979L13.7771 12.2719L13.7689 12.2636L13.7604 12.2556L13.07 12.979ZM11.848 12.4895L11.848 13.4895L11.848 12.4895ZM10.626 12.979L9.93563 12.2556L9.92718 12.2636L9.91892 12.2719L10.626 12.979ZM7.02602 16.579L7.73101 17.2882L7.73313 17.2861L7.02602 16.579ZM5.28202 17.301L5.28202 18.301L5.28463 18.301L5.28202 17.301ZM3.79102 17.301L3.08391 18.0081L3.37681 18.301H3.79102V17.301ZM1.06802 14.578L0.360884 15.2851L0.360915 15.2851L1.06802 14.578ZM0.000244141 12H1.00024H0.000244141ZM5.2804 19.36C5.87565 19.3615 6.4653 19.2451 7.01529 19.0175L6.25032 17.1695C5.9445 17.2961 5.61662 17.3609 5.28564 17.36L5.2804 19.36ZM7.01529 19.0175C7.56527 18.7898 8.06469 18.4554 8.48467 18.0335L7.06737 16.6224C6.83384 16.857 6.55614 17.0429 6.25032 17.1695L7.01529 19.0175ZM8.48313 18.0351L12.0831 14.4351L10.6689 13.0209L7.06891 16.6209L8.48313 18.0351ZM12.0675 14.4503C12.0087 14.5067 11.9304 14.5381 11.849 14.5381L11.849 12.5381C11.4151 12.5381 10.9979 12.7056 10.6845 13.0056L12.0675 14.4503ZM11.849 14.5381C11.7676 14.5381 11.6893 14.5067 11.6305 14.4503L13.0135 13.0056C12.7001 12.7056 12.2829 12.5381 11.849 12.5381L11.849 14.5381ZM11.6149 14.4351L15.2279 18.0481L16.6421 16.6339L13.0291 13.0209L11.6149 14.4351ZM15.2263 18.0465C15.6463 18.4684 16.1457 18.8028 16.6957 19.0305L17.4607 17.1826C17.1549 17.056 16.8772 16.8701 16.6438 16.6355L15.2263 18.0465ZM16.6957 19.0305C17.2458 19.2582 17.8355 19.3746 18.4308 19.373L18.4253 17.373C18.0943 17.3739 17.7665 17.3092 17.4607 17.1826L16.6957 19.0305ZM18.428 19.373H19.138V17.373H18.428V19.373ZM18.4309 17.6659L13.8709 22.2259L15.2851 23.6401L19.8451 19.0801L18.4309 17.6659ZM13.8711 22.2257C13.3748 22.7217 12.7018 23.0004 12 23.0004L12 25.0004C13.232 25.0004 14.4135 24.5112 15.2849 23.6403L13.8711 22.2257ZM12 23.0004C11.2983 23.0004 10.6253 22.7217 10.1289 22.2257L8.71514 23.6403C9.58654 24.5112 10.7681 25.0004 12 25.0004L12 23.0004ZM10.1292 22.226L5.55721 17.653L4.14284 19.067L8.71484 23.64L10.1292 22.226ZM4.85002 19.36H5.28302V17.36H4.85002V19.36ZM18.4306 4.62699C17.8354 4.62543 17.2457 4.74186 16.6958 4.96953L17.4607 6.81745C17.7665 6.69086 18.0944 6.62612 18.4254 6.62699L18.4306 4.62699ZM16.6958 4.96953C16.1458 5.1972 15.6464 5.53161 15.2264 5.95343L16.6437 7.36455C16.8772 7.13 17.1549 6.94405 17.4607 6.81745L16.6958 4.96953ZM15.2278 5.95198L11.6148 9.56598L13.0292 10.98L16.6422 7.366L15.2278 5.95198ZM11.6161 9.56475C11.6779 9.50309 11.7617 9.46847 11.849 9.46847V11.4685C12.291 11.4685 12.715 11.2933 13.028 10.9812L11.6161 9.56475ZM11.849 9.46847C11.9364 9.46847 12.0201 9.50309 12.082 9.56475L10.6701 10.9812C10.9831 11.2933 11.407 11.4685 11.849 11.4685V9.46847ZM12.0831 9.56588L8.48313 5.96588L7.06891 7.3801L10.6689 10.9801L12.0831 9.56588ZM8.48495 5.96772C8.06508 5.54566 7.56571 5.21101 7.01572 4.98312L6.25012 6.83078C6.55594 6.9575 6.83362 7.14358 7.06709 7.37827L8.48495 5.96772ZM7.01572 4.98312C6.46573 4.75523 5.87602 4.6386 5.28069 4.63999L5.28536 6.63999C5.61639 6.63921 5.9443 6.70406 6.25012 6.83078L7.01572 4.98312ZM5.28302 4.63999H4.84902V6.63999H5.28302V4.63999ZM5.55605 6.34717L10.1291 1.77518L8.71499 0.360807L4.14199 4.93281L5.55605 6.34717ZM10.1291 1.77513C10.6253 1.27896 11.2983 1.00021 12 1.00021V-0.999786C10.7679 -0.999786 9.58623 -0.510354 8.71495 0.360854L10.1291 1.77513ZM12 1.00021C12.7017 1.00021 13.3747 1.27896 13.8709 1.77513L15.2851 0.360854C14.4138 -0.510354 13.2321 -0.999786 12 -0.999786V1.00021ZM13.8709 1.7751L18.4299 6.3341L19.8441 4.91988L15.2851 0.360884L13.8709 1.7751ZM19.137 4.62699H18.428V6.62699H19.137V4.62699ZM1.77526 10.129L4.49726 7.40597L3.08278 5.99201L0.360785 8.71501L1.77526 10.129ZM3.79002 7.69899H5.28202V5.69899H3.79002V7.69899ZM5.27941 7.69899C5.66985 7.70001 6.04413 7.85496 6.32103 8.13021L7.73101 6.71177C7.08066 6.06531 6.20162 5.70139 5.28463 5.69899L5.27941 7.69899ZM6.31891 8.1281L9.91892 11.7281L11.3331 10.3139L7.73313 6.71388L6.31891 8.1281ZM9.91995 11.7291C10.4317 12.2394 11.1249 12.5259 11.8475 12.5259L11.8475 10.5259C11.6543 10.5259 11.4689 10.4493 11.3321 10.3128L9.91995 11.7291ZM11.8475 12.5259C12.5702 12.5259 13.2633 12.2394 13.7751 11.7291L12.363 10.3128C12.2261 10.4493 12.0408 10.5259 11.8475 10.5259V12.5259ZM13.776 11.7282L17.39 8.1152L15.976 6.70079L12.362 10.3138L13.776 11.7282ZM17.3885 8.11669C17.6652 7.84124 18.0394 7.6861 18.4299 7.68499L18.4242 5.68499C17.5068 5.68761 16.6276 6.05211 15.9775 6.69929L17.3885 8.11669ZM18.427 7.68499H20.194V5.68499H18.427V7.68499ZM19.4869 7.3921L22.2239 10.1291L23.6381 8.71488L20.9011 5.97788L19.4869 7.3921ZM22.2239 10.1291C22.7201 10.6253 22.9988 11.2983 22.9988 12H24.9988C24.9988 10.7679 24.5094 9.5862 23.6382 8.71492L22.2239 10.1291ZM22.9988 12C22.9988 12.7017 22.7201 13.3747 22.2239 13.8709L23.6382 15.2851C24.5094 14.4138 24.9988 13.2321 24.9988 12H22.9988ZM22.2239 13.8709L19.4879 16.6069L20.9021 18.0211L23.6381 15.2851L22.2239 13.8709ZM20.195 16.314H18.427V18.314H20.195V16.314ZM18.4295 16.314C18.0391 16.313 17.6649 16.1581 17.3881 15.8829L15.9779 17.3011C16.6283 17.9478 17.5075 18.3117 18.4246 18.314L18.4295 16.314ZM17.3901 15.8849L13.7771 12.2719L12.3629 13.6861L15.9759 17.2991L17.3901 15.8849ZM13.7604 12.2556C13.2452 11.7638 12.5603 11.4895 11.848 11.4895L11.848 13.4895C12.046 13.4895 12.2364 13.5657 12.3796 13.7024L13.7604 12.2556ZM11.848 11.4895C11.1358 11.4895 10.4509 11.7638 9.93563 12.2556L11.3164 13.7024C11.4597 13.5657 11.65 13.4895 11.848 13.4895V11.4895ZM9.91892 12.2719L6.31891 15.8719L7.73313 17.2861L11.3331 13.6861L9.91892 12.2719ZM6.32103 15.8698C6.04413 16.145 5.66985 16.3 5.27941 16.301L5.28463 18.301C6.20162 18.2986 7.08066 17.9347 7.73101 17.2882L6.32103 15.8698ZM5.28202 16.301H3.79102V18.301H5.28202V16.301ZM4.49813 16.5939L1.77513 13.8709L0.360915 15.2851L3.08391 18.0081L4.49813 16.5939ZM1.77516 13.8709C1.27899 13.3747 1.00024 12.7017 1.00024 12H-0.999756C-0.999756 13.2321 -0.510323 14.4138 0.360884 15.2851L1.77516 13.8709ZM1.00024 12C1.00024 11.2983 1.27899 10.6253 1.77516 10.1291L0.360884 8.71492C-0.510323 9.5862 -0.999756 10.7679 -0.999756 12H1.00024Z" fill="white" mask="url(#path-1-inside-1_9_77)"/>
</g>
<defs>
<clipPath id="clip0_9_77">
<rect width="24" height="24" fill="white"/>
</clipPath>
</defs>
</svg>
